<svg width="26" height="26" viewBox="0 0 26 26" fill="none" xmlns="http://www.w3.org/2000/svg">
<g id="savings">
<path id="Vector" d="M21.4825 8.66699L19.0234 6.20782C19.0992 5.75282 19.2184 5.33032 19.37 4.96199C19.4892 4.68032 19.5325 4.35532 19.4675 4.01949C19.3267 3.23949 18.5684 2.69782 17.7667 2.70866C16.0442 2.74116 14.5167 3.58616 13.5417 4.87532H8.12502C4.83169 4.87532 2.16669 7.54032 2.16669 10.8337C2.16669 13.2712 3.65085 18.937 4.42002 21.7103C4.68002 22.642 5.53585 23.292 6.51085 23.292H8.66669C9.85835 23.292 10.8334 22.317 10.8334 21.1253H13C13 22.317 13.975 23.292 15.1667 23.292H17.3442C18.2975 23.292 19.1425 22.6637 19.4242 21.7428L20.7784 17.2362L23.0967 16.4562C23.5409 16.3045 23.8334 15.8928 23.8334 15.427V9.75032C23.8334 9.15449 23.3459 8.66699 22.75 8.66699H21.4825ZM13 10.292H9.75002C9.15419 10.292 8.66669 9.80449 8.66669 9.20866C8.66669 8.61282 9.15419 8.12532 9.75002 8.12532H13C13.5959 8.12532 14.0834 8.61282 14.0834 9.20866C14.0834 9.80449 13.5959 10.292 13 10.292ZM17.3334 12.4587C16.7375 12.4587 16.25 11.9712 16.25 11.3753C16.25 10.7795 16.7375 10.292 17.3334 10.292C17.9292 10.292 18.4167 10.7795 18.4167 11.3753C18.4167 11.9712 17.9292 12.4587 17.3334 12.4587Z" fill="#AB5373"/>
</g>
</svg>
